<?xml version="1.0" encoding="UTF-8" standalone="no"?>
<!-- Created with Inkscape (http://www.inkscape.org/) -->

<svg
   xmlns:dc="http://purl.org/dc/elements/1.1/"
   xmlns:cc="http://creativecommons.org/ns#"
   xmlns:rdf="http://www.w3.org/1999/02/22-rdf-syntax-ns#"
   xmlns:svg="http://www.w3.org/2000/svg"
   xmlns="http://www.w3.org/2000/svg"
   xmlns:sodipodi="http://sodipodi.sourceforge.net/DTD/sodipodi-0.dtd"
   xmlns:inkscape="http://www.inkscape.org/namespaces/inkscape"
   width="121.42571mm"
   height="111.46671mm"
   preserveAspectRatio="none"
   viewBox="0 0 430.24859 394.96079"
   id="svg6203"
   version="1.1"
   inkscape:version="0.91 r13725"
   sodipodi:docname="scribble2.svg">
  <defs
     id="defs6205" />
  <sodipodi:namedview
     id="base"
     pagecolor="#ffffff"
     bordercolor="#666666"
     borderopacity="1.0"
     inkscape:pageopacity="0.0"
     inkscape:pageshadow="2"
     inkscape:zoom="0.35"
     inkscape:cx="-132.73285"
     inkscape:cy="14.623251"
     inkscape:document-units="px"
     inkscape:current-layer="layer1"
     showgrid="false"
     fit-margin-top="0"
     fit-margin-left="0"
     fit-margin-right="0"
     fit-margin-bottom="0"
     inkscape:window-width="1920"
     inkscape:window-height="1056"
     inkscape:window-x="0"
     inkscape:window-y="24"
     inkscape:window-maximized="1" />
  <metadata
     id="metadata6208">
    <rdf:RDF>
      <cc:Work
         rdf:about="">
        <dc:format>image/svg+xml</dc:format>
        <dc:type
           rdf:resource="http://purl.org/dc/dcmitype/StillImage" />
        <dc:title></dc:title>
      </cc:Work>
    </rdf:RDF>
  </metadata>
  <g
     inkscape:label="Layer 1"
     inkscape:groupmode="layer"
     id="layer1"
     transform="translate(-36.304276,-37.738947)">
    <g
       transform="matrix(1.131812,0,0,-1.1669779,72.772327,346.71286)"
       id="g716"
       style="fill:#2c3e50;fill-opacity:0.80000001">
      <path
         inkscape:connector-curvature="0"
         id="path718"
         style="fill:#2c3e50;fill-opacity:0.80000001;fill-rule:nonzero;stroke:none"
         d="m 0,0 c 0,0 13.025,24.315 19.654,36.222 1.582,2.842 3.234,5.695 4.851,8.527 C 16.571,29.706 0.001,-0.001 0,0 m 21.101,48.937 c 0.659,1.346 1.326,2.688 1.986,4.034 0.872,0.929 1.744,1.857 2.616,2.786 0.239,0.254 -0.117,0.751 -0.661,1.184 8.081,16.412 16.269,32.769 24.677,49.024 5.553,6.654 10.862,13.309 15.916,19.971 C 62.01,118.467 58.293,110.921 54.486,103.28 45.731,88.8 37.216,74.191 28.821,59.512 26.248,55.987 23.674,52.462 21.101,48.937 m 7.668,-19.324 c 0.77,1.31 1.54,2.618 2.311,3.923 0.038,-0.061 0.105,-0.116 0.168,-0.172 -0.826,-1.247 -1.653,-2.498 -2.479,-3.751 M 64.238,75.354 C 61.648,68.7 59.092,61.958 56.593,55.131 49.718,44.063 42.993,32.901 36.342,21.696 29.807,14.466 23.271,7.236 16.736,0.005 c 0.484,1.211 0.952,2.428 1.424,3.643 2.838,5.521 5.676,11.041 8.514,16.562 0.054,0.104 0.057,0.221 0.027,0.344 12.188,18.478 24.579,36.82 37.537,54.8 M 12.833,-9.362 c 4.973,5.502 9.946,11.004 14.919,16.507 -4.825,-8.221 -9.626,-16.453 -14.426,-24.682 -3.52,-4.457 -7.04,-8.915 -10.56,-13.372 3.574,7.083 6.931,14.268 10.067,21.547 M 4.885,-42.9 c 1.401,2.872 2.802,5.744 4.203,8.616 2.962,3.288 5.924,6.576 8.886,9.864 -1.006,-1.909 -2.015,-3.816 -3.02,-5.725 -0.128,-0.242 0.015,-0.47 0.299,-0.652 C 11.797,-34.831 8.341,-38.866 4.885,-42.9 m 9.863,-1.777 c 2.664,5.734 5.328,11.468 7.992,17.202 -1.64,-4.691 -3.28,-9.382 -4.919,-14.073 -1.024,-1.043 -2.048,-2.086 -3.073,-3.129 m 4.057,-4.251 c 0.587,-0.235 1.213,-0.26 1.488,0.136 1.71,2.465 3.42,4.931 5.129,7.395 -1.434,-4.977 -2.846,-9.945 -4.242,-14.906 -2.694,-2.982 -5.387,-5.965 -8.081,-8.947 1.902,5.441 3.804,10.881 5.706,16.322 m 6.91,-2.354 c 1.664,5.865 3.35,11.74 5.077,17.611 0.443,0.638 0.894,1.269 1.337,1.907 3.415,3.477 6.829,6.955 10.243,10.433 -5.167,-9.488 -10.282,-19.004 -15.376,-28.532 -0.427,-0.473 -0.854,-0.946 -1.281,-1.419 m 14.91,20.387 c 3.239,5.934 6.505,11.85 9.789,17.756 0.327,0.332 0.653,0.665 0.98,0.997 -3.585,-6.253 -7.17,-12.507 -10.769,-18.753 m 4.389,-21.73 c 0.164,-0.408 0.341,-0.813 0.524,-1.217 -1.09,-1.252 -2.18,-2.505 -3.269,-3.757 0.915,1.658 1.83,3.316 2.745,4.974 m 0.9,8.751 c -0.034,1.893 0.141,3.79 0.507,5.672 2.594,4.137 5.188,8.238 7.782,12.288 0.426,-0.15 0.831,-0.179 1.053,0.002 0.338,0.274 0.681,0.538 1.019,0.812 -3.454,-6.258 -6.907,-12.516 -10.361,-18.774 m 0.846,-6.187 c 6.99,7.238 13.98,14.477 20.969,21.716 -6.817,-7.833 -13.635,-15.666 -20.452,-23.499 -0.193,0.591 -0.365,1.185 -0.517,1.783 m 5.672,10.877 10.853,19.667 C 71.684,-12.95 80.252,-6.661 89.116,-0.561 76.888,-13.435 64.66,-26.31 52.432,-39.184 m 21.247,3.785 c -0.589,-2.309 -1.177,-4.618 -1.766,-6.928 -1.876,-1.742 -3.753,-3.484 -5.629,-5.226 2.465,4.051 4.93,8.103 7.395,12.154 m 2.832,-2.203 3.007,11.8 11.783,19.367 c 1.39,1.598 2.781,3.196 4.171,4.794 -6.332,-11.863 -12.736,-23.86 -18.961,-35.961 m 11.211,13.431 c 4.375,8.459 8.7,17.132 13.19,25.528 0.158,0.296 0.33,0.597 0.495,0.895 0.705,-0.3 1.472,-0.443 1.749,-0.155 4.874,5.081 7.327,7.658 12.276,12.914 C 106.24,1.918 97,-11.138 87.722,-24.171 m 16.73,1.996 c 0.051,0.055 0.102,0.108 0.153,0.162 2.921,2.174 5.835,4.398 8.748,6.649 -2.348,-4.501 -4.954,-8.853 -7.776,-13.059 -3.851,-4.205 -7.702,-8.411 -11.553,-12.616 3.476,6.288 6.952,12.576 10.428,18.864 m 9.734,-7.509 c -0.249,-0.571 -0.498,-1.143 -0.746,-1.714 -1.056,-1.102 -2.106,-2.209 -3.163,-3.309 1.303,1.674 2.606,3.349 3.909,5.023 m -5.12,-20.309 c 1.575,3.619 3.149,7.237 4.724,10.855 3.024,2.12 6.048,4.24 9.072,6.36 -2.003,-2.499 -4.006,-4.998 -6.009,-7.498 -0.689,-0.804 -1.383,-1.621 -2.071,-2.423 -0.051,-0.059 -0.056,-0.131 -0.038,-0.208 -1.892,-2.362 -3.785,-4.724 -5.678,-7.086 m 20.707,25.957 c 1.297,1.18 2.602,2.349 3.898,3.531 -0.559,-0.662 -1.11,-1.307 -1.667,-1.966 -0.744,-0.522 -1.488,-1.043 -2.231,-1.565 m 5.527,9.637 c -1.903,-1.756 -2.852,-2.629 -4.747,-4.367 1.922,2.013 3.849,4.038 5.782,6.076 -0.322,-0.38 -0.648,-0.755 -0.969,-1.135 -0.001,-0.001 -0.003,-0.003 -0.004,-0.004 0,0 0,0 0,0 -0.042,-0.051 -0.086,-0.1 -0.129,-0.151 -0.096,-0.113 -0.053,-0.261 0.067,-0.419 m 1.582,-10.793 c 2.446,2.462 4.899,4.918 7.338,7.387 2.827,1.982 5.654,3.964 8.48,5.946 -3.206,-3.149 -6.423,-6.284 -9.635,-9.425 -0.634,0.306 -1.309,0.439 -1.611,0.169 l -4.572,-4.077 z m 0.376,-17.393 c 3.382,3.836 6.765,7.673 10.147,11.51 -0.924,-2.12 -1.849,-4.241 -2.774,-6.361 -2.457,-1.717 -4.915,-3.433 -7.373,-5.149 m 0.971,9.518 3.598,5.929 c 4.289,3.958 8.573,7.921 12.835,11.909 -5.478,-5.946 -10.955,-11.892 -16.433,-17.838 m 11.751,-0.634 c 1.595,3.658 3.19,7.317 4.786,10.975 0.195,0.449 -0.352,1.069 -1.036,1.497 8.766,9.516 17.533,19.032 26.3,28.548 0.204,0.222 -0.005,0.587 -0.386,0.945 15.636,14.731 31.318,29.41 47.405,43.647 -7.378,-8.912 -14.829,-17.762 -22.177,-26.698 -4.275,-4.389 -8.567,-8.895 -12.863,-13.254 -6.912,-7.015 -14.072,-14.047 -21.07,-20.981 -0.204,-0.201 -0.157,-0.448 0.035,-0.693 -3.878,-3.976 -7.744,-7.921 -11.593,-11.828 -0.459,-0.467 0.408,-1.177 1.337,-1.542 -1.694,-2.222 -3.388,-4.444 -5.081,-6.667 -1.886,-1.316 -3.771,-2.633 -5.657,-3.949 m 15.532,1.945 c 0.287,0.806 0.575,1.613 0.863,2.42 2.054,1.828 4.113,3.65 6.158,5.488 0.115,-0.049 0.231,-0.092 0.347,-0.13 -2.449,-2.599 -4.91,-5.187 -7.368,-7.778 m 10.231,-3.234 c 2.049,3.264 4.098,6.527 6.147,9.79 3.169,2.721 6.34,5.438 9.507,8.16 -4.742,-6.395 -9.986,-12.386 -15.654,-17.95 m 7.735,-15.346 c 0.024,0.202 0.049,0.404 0.074,0.606 7.405,9.276 14.797,18.551 22.286,27.748 1.762,1.153 3.523,2.306 5.284,3.458 -7.117,-9.14 -14.234,-18.279 -21.35,-27.419 -2.097,-1.468 -4.194,-2.933 -6.294,-4.393 m 15.773,10.996 c 2.445,3.14 4.89,6.279 7.335,9.419 0.745,-0.595 2.103,-1.068 2.567,-0.715 2.777,2.115 5.59,4.205 8.415,6.284 -3.299,-3.09 -6.599,-6.18 -9.899,-9.271 -2.822,-1.881 -5.627,-3.789 -8.418,-5.717 m 16.404,2.787 c 0.721,1.11 1.441,2.22 2.162,3.33 3.72,2.63 7.47,5.211 11.24,7.715 0.439,0.261 0.895,0.526 1.337,0.787 -1.077,-1.518 -2.153,-3.037 -3.23,-4.556 -3.836,-2.425 -7.673,-4.851 -11.509,-7.276 m 21.507,4.374 c 9.688,6.231 19.355,12.482 28.976,18.805 -1.363,-2.105 -2.725,-4.21 -4.088,-6.314 -6,-4.859 -12.025,-9.684 -18.075,-14.472 -0.388,-0.308 -0.008,-0.77 0.627,-1.169 -7.949,-5.386 -15.684,-10.656 -23.043,-15.978 6.026,7.569 9.169,11.358 15.603,19.128 m 22.518,2.493 c 2.239,1.498 4.476,3 6.705,4.508 -0.837,-1.276 -1.667,-2.524 -2.501,-3.788 l -8.603,-7.514 4.399,6.794 z M 247.96,-47.79 c 1.972,1.268 3.944,2.535 5.916,3.803 -2.245,-3.338 -4.475,-6.64 -6.678,-9.898 -0.248,-0.366 0.161,-0.975 0.763,-1.501 -2.714,-1.847 -5.481,-3.624 -8.334,-5.276 2.777,4.29 5.555,8.581 8.333,12.872 m 15.063,-0.203 c 1.351,1.161 2.671,2.357 3.974,3.57 0.648,-0.209 1.269,-0.308 1.57,-0.184 1.672,0.687 2.509,1.032 4.183,1.726 0.512,-0.332 1.196,-0.637 1.8,-0.795 -3.849,-1.46 -7.694,-2.895 -11.527,-4.317 m 19.576,7.404 c -0.612,-0.237 -1.259,-0.487 -1.993,-0.771 0.748,0.36 1.49,0.735 2.238,1.098 -0.082,-0.109 -0.164,-0.218 -0.245,-0.327 m 2.056,-2.972 c 0.261,0.1 0.523,0.197 0.783,0.298 -0.065,-0.089 -0.131,-0.179 -0.196,-0.268 -0.429,-0.322 -0.858,-0.643 -1.288,-0.965 0.234,0.312 0.468,0.623 0.701,0.935 m 14.701,19.596 c -0.205,-1.079 -0.409,-2.157 -0.613,-3.235 -0.691,0.237 -1.366,0.343 -1.671,0.191 0.761,1.015 1.522,2.029 2.284,3.044 m -10.677,-14.233 c 0.315,0.421 0.63,0.841 0.946,1.261 0.197,0.098 0.396,0.193 0.593,0.291 -0.313,-0.439 -0.627,-0.876 -0.94,-1.313 -0.212,-0.085 -0.4,-0.159 -0.599,-0.239 m 4.886,12.227 c -1.468,-1.957 -2.937,-3.914 -4.405,-5.872 -1.23,-0.742 -2.459,-1.487 -3.693,-2.22 -1.9,-0.83 -3.804,-1.652 -5.71,-2.467 4.64,3.477 9.244,6.997 13.808,10.559 m 3.407,13.436 c -2.505,-1.611 -5.011,-3.222 -7.516,-4.832 2.223,3.51 4.296,7.125 6.204,10.842 2.463,1.626 4.914,3.267 7.347,4.929 -1.726,-3.863 -3.745,-7.517 -6.035,-10.939 M 268.534,-29.27 c 6.866,5.998 13.732,11.996 20.599,17.993 -2.159,-3.703 -4.471,-7.302 -6.954,-10.769 -5.145,-3.308 -10.29,-6.616 -15.435,-9.924 0.597,0.902 1.191,1.792 1.79,2.7 m -3.664,-12.544 c -3.499,-3.302 -7.172,-6.42 -11.01,-9.341 1.653,2.431 3.314,4.882 4.987,7.361 2.048,0.579 4.048,1.258 6.023,1.98 m 5.871,29.216 2.548,3.935 c 3.808,2.529 7.607,5.071 11.393,7.636 -4.62,-3.891 -9.273,-7.74 -13.941,-11.571 m 16.666,21.775 c -1.834,-1.396 -3.679,-2.775 -5.519,-4.162 -0.06,0.162 -0.178,0.334 -0.343,0.505 1.958,1.214 3.916,2.427 5.862,3.657 m -11.137,-6.9 c -0.615,-0.95 -1.23,-1.9 -1.845,-2.85 -9.169,-6.814 -18.41,-13.525 -27.739,-20.131 -0.001,0.001 -0.002,0.002 -0.003,0.003 2.889,3.485 5.809,7.014 8.751,10.595 6.985,4.048 13.937,8.175 20.836,12.383 M 258.559,9.07 c 0.293,0.414 0.586,0.828 0.88,1.241 0.557,0.787 -2.224,2.468 -2.934,1.803 -6.685,-6.261 -13.37,-12.521 -20.054,-18.782 -2.552,-1.802 -5.104,-3.604 -7.656,-5.405 11.118,10.08 22.163,20.174 33.069,30.39 0.73,-0.468 1.629,-0.742 1.948,-0.347 2.484,3.072 4.968,6.144 7.451,9.215 8.969,8.537 17.82,17.188 26.523,26.007 4.402,2.95 9.02,5.596 13.821,7.933 L 285.357,28.807 C 276.522,22.114 267.574,15.553 258.559,9.07 m -31.386,-28.978 c 3.661,3.429 7.322,6.858 10.983,10.287 1.941,1.36 3.884,2.718 5.829,4.074 -0.682,-0.962 -1.364,-1.924 -2.045,-2.886 -4.933,-3.811 -9.857,-7.635 -14.767,-11.475 m 18.373,4.051 c -2.183,-2.657 -4.343,-5.281 -6.488,-7.89 -0.711,0.52 -1.683,0.926 -2.054,0.692 -0.736,-0.466 -1.472,-0.931 -2.207,-1.396 0.94,1.327 1.881,2.654 2.822,3.981 2.617,1.529 5.259,3.064 7.927,4.613 m 5.698,14.608 c 0.352,0.497 0.704,0.993 1.056,1.49 2.984,2.076 5.966,4.153 8.938,6.234 -3.328,-2.579 -6.661,-5.151 -9.994,-7.724 m 16.52,8.397 c -1.374,-1.691 -2.748,-3.383 -4.122,-5.074 -6.032,-4.128 -12.1,-8.215 -18.205,-12.274 7.499,5.726 14.946,11.504 22.327,17.348 m 8.277,32.103 C 272.423,35.495 269.038,31.503 265.937,27.268 247.586,10.202 228.929,-6.543 211.227,-23.96 l 8.781,11.277 c 0.561,0.72 -2.126,2.357 -2.787,1.924 -1.57,-1.027 -3.14,-2.055 -4.71,-3.082 2.845,3.436 5.702,6.864 8.598,10.263 18.367,14.23 36.819,28.303 54.932,42.829 m -4.955,6.086 c -7.211,-5.755 -14.484,-11.444 -21.817,-17.071 1.128,1.276 2.26,2.559 3.395,3.849 0.027,0.03 0.041,0.065 0.059,0.099 6.121,4.374 12.242,8.749 18.363,13.123 m -15.872,4.811 c 0.684,1.099 1.367,2.198 2.051,3.296 3.945,3.609 7.871,7.234 11.776,10.878 -2.429,-2.88 -4.858,-5.759 -7.287,-8.639 -2.177,-1.848 -4.353,-3.697 -6.54,-5.535 m 14.333,29.555 c -0.448,-0.167 -0.894,-0.342 -1.345,-0.5 0.863,0.832 1.726,1.663 2.587,2.496 -0.414,-0.665 -0.828,-1.331 -1.242,-1.996 m -12.123,-3.407 c -1.129,-0.217 -2.266,-0.404 -3.407,-0.571 0.005,0.007 0.01,0.015 0.016,0.023 10.266,9.216 20.424,18.541 30.474,27.999 -0.215,-0.346 -0.43,-0.691 -0.645,-1.037 -8.722,-8.901 -17.537,-17.701 -26.438,-26.414 m 4.897,11.681 c 1.883,2.778 3.766,5.557 5.649,8.335 11.003,10.873 21.843,21.897 32.496,33.085 -2.664,-4.282 -5.329,-8.565 -7.993,-12.847 -9.903,-9.664 -19.957,-19.183 -30.152,-28.573 m 28.721,36.558 c 5.199,5.771 10.398,11.542 15.596,17.313 1.046,0.839 2.104,1.69 3.146,2.525 -0.017,-0.027 -0.034,-0.054 -0.05,-0.081 -6.158,-6.654 -12.394,-13.236 -18.692,-19.757 m 2.921,16.26 c -7.808,-8.053 -15.675,-16.052 -23.644,-23.953 -22.207,-18.049 -44.356,-36.098 -65.33,-55.583 1.244,1.524 2.485,3.044 3.724,4.557 5.866,6.212 11.737,12.414 17.607,18.614 0.745,-0.609 1.88,-1.106 2.317,-0.653 29.876,30.959 59.753,61.917 89.629,92.876 -8.101,-11.953 -16.202,-23.905 -24.303,-35.858 m 8.382,34.497 c -8.54,-8.257 -17.146,-16.446 -25.871,-24.506 -0.344,0.032 -0.663,0.016 -0.908,-0.073 4.007,5.256 7.965,10.546 11.871,15.87 4.969,2.903 9.939,5.806 14.908,8.709 m -17.984,-6.918 c -1.276,-0.745 -2.552,-1.49 -3.828,-2.236 4.104,4.66 8.209,9.319 12.313,13.979 -2.803,-3.936 -5.632,-7.85 -8.485,-11.743 m 10.28,29.57 c -4.67,-4.93 -9.35,-9.853 -14.047,-14.759 -0.504,0.129 -0.978,0.099 -1.25,-0.202 -2.65,-2.941 -5.3,-5.861 -7.947,-8.764 5.75,6.572 11.5,13.144 17.25,19.716 1.998,1.336 3.996,2.672 5.994,4.009 m -10.394,0.579 c -3.368,-3.499 -6.737,-6.999 -10.105,-10.499 -0.319,-0.331 0.341,-1.012 1.116,-1.487 -4.811,-6.416 -9.623,-12.832 -14.435,-19.248 -0.435,-0.58 1.25,-1.855 2.297,-1.972 -15.44,-15.493 -31.068,-30.787 -46.77,-46.015 18.894,23.47 37.904,46.894 56.438,70.597 0.233,0.298 -0.162,0.646 -0.77,0.904 8.797,10.961 17.519,21.983 26.205,33.031 4.076,3.209 8.151,6.419 12.226,9.628 -8.734,-11.646 -17.468,-23.292 -26.202,-34.939 m 18.452,36.399 c -2.383,-3.034 -4.778,-6.056 -7.168,-9.083 -1.042,-0.82 -2.083,-1.64 -3.124,-2.461 1.347,1.695 2.705,3.381 4.049,5.078 2.083,2.167 4.169,4.32 6.243,6.466 M 286.85,214.876 c -12.034,-15.139 -24.163,-30.198 -36.439,-45.147 -7.04,-7.839 -10.514,-11.66 -17.248,-19.047 17.015,20.368 33.807,40.896 50.396,61.602 1.097,0.864 2.194,1.728 3.291,2.592 m -1.178,17.839 c -5.866,-6.936 -11.732,-13.873 -17.598,-20.809 -0.352,-0.415 0.568,-1.277 1.496,-1.708 -11.132,-10.425 -22.168,-20.97 -33.107,-31.596 6.026,8.563 12.025,17.146 18.022,25.73 0.256,-0.023 0.474,0.015 0.612,0.143 10.192,9.413 20.383,18.826 30.575,28.24 m -36.514,-11.144 c -4.152,-5.794 -8.303,-11.588 -12.454,-17.382 -0.022,-0.029 -0.029,-0.063 -0.041,-0.095 -6.786,-8.918 -13.576,-17.832 -20.357,-26.754 -14.336,-16.196 -28.299,-32.709 -42.244,-49.241 3.655,6.093 7.334,12.191 11.027,18.256 14.664,19.211 29.576,38.236 44.515,57.234 0.551,-0.226 1.088,-0.294 1.343,-0.042 6.07,6.008 12.14,12.016 18.211,18.024 m -22.769,-10.119 c 0.517,0.778 1.03,1.561 1.55,2.342 0.532,0.799 -2.655,2 -3.367,1.049 -1.785,-2.381 -5.291,-7.068 -5.291,-7.068 0,0 10.27,14.244 18.593,25.769 2.457,2.044 4.915,4.087 7.372,6.131 l -17.32,-20.501 c -0.566,-0.67 2.216,-2.545 2.935,-1.802 l 13.908,14.379 c -0.361,-0.569 -0.723,-1.139 -1.084,-1.708 -5.781,-6.182 -11.548,-12.377 -17.296,-18.591 M 215.228,194.4 c 6.012,6.673 12.414,13.666 19.1,20.901 -0.422,-0.665 -0.844,-1.33 -1.266,-1.995 -7.492,-9.498 -14.982,-18.998 -22.469,-28.5 -2.759,-3.506 -5.551,-7.089 -8.367,-10.728 4.376,6.957 8.72,13.68 13.002,20.322 m 12.339,30.573 c -11.419,-15.834 -22.782,-31.703 -33.996,-47.684 -4.073,-5.833 -8.182,-11.749 -12.304,-17.693 6.731,13.377 13.469,26.752 20.218,40.12 0.598,0.91 1.195,1.816 1.791,2.72 0.139,0.21 0.102,0.475 -0.037,0.747 0.558,1.103 0.929,1.835 1.362,2.692 7.656,6.366 15.311,12.732 22.966,19.098 m -18.152,-2.167 c -2.077,-3.504 -4.154,-7.008 -6.231,-10.513 -1.758,-2.591 -3.525,-5.202 -5.306,-7.848 -4.405,-4.325 -8.878,-8.829 -13.262,-13.447 -9.905,-10.432 -19.617,-21.169 -29.244,-31.947 1.301,2.149 2.603,4.303 3.907,6.46 17.878,23.079 36.002,45.863 55.422,67.668 -1.736,-3.398 -3.504,-6.87 -5.286,-10.373 m -19.752,-13.645 c -4.86,-5.869 -9.665,-11.782 -14.411,-17.74 -0.467,-0.587 -0.928,-1.184 -1.395,-1.775 2.662,4.406 5.32,8.803 7.966,13.174 0.235,0.387 -0.285,0.77 -0.995,0.987 2.545,3.324 5.09,6.648 7.635,9.972 0.723,0.846 1.446,1.691 2.17,2.537 -1.228,-1.744 -2.456,-3.488 -3.683,-5.232 -0.502,-0.713 1.789,-2.212 2.713,-1.923 m 7.526,28.884 c -2.831,-4.609 -5.663,-9.218 -8.494,-13.827 -0.037,-0.047 -0.074,-0.094 -0.11,-0.14 -0.416,0.91 -2.348,1.827 -2.879,1.086 -0.473,-0.659 -0.946,-1.32 -1.42,-1.982 -0.889,0.349 -2.26,0.436 -2.71,-0.19 -3.196,-4.439 -6.412,-8.926 -9.636,-13.433 3.321,5.699 6.666,11.384 10,17.076 5.083,3.803 10.166,7.607 15.249,11.41 m -24.796,-37.291 c -5.19,-9.533 -10.377,-19.067 -15.569,-28.598 -5.651,-8.219 -11.276,-16.375 -16.839,-24.383 2.766,6.227 5.482,12.518 8.178,18.849 8.086,11.37 16.158,22.751 24.23,34.132 m -8.96,29.314 c -2.028,-4.192 -4.056,-8.385 -6.083,-12.578 -3.265,-3.779 -6.499,-7.584 -9.717,-11.403 5.267,7.994 10.533,15.988 15.8,23.981 m -9.797,-21.631 c 0.171,-0.202 0.398,-0.399 0.653,-0.575 -8.955,-15.011 -17.903,-30.113 -26.966,-44.894 -0.011,-0.019 -0.023,-0.038 -0.035,-0.057 -11.159,-14.944 -22.442,-29.776 -33.933,-44.467 2.399,6.405 4.746,12.902 7.069,19.475 5.972,8.981 11.887,18.003 17.75,27.055 11.628,14.656 23.439,29.135 35.462,43.463 m -44.967,-46.335 c 1.039,3.159 2.071,6.328 3.09,9.513 11.194,18.461 22.285,36.983 33.344,55.525 -12.145,-21.68 -24.289,-43.359 -36.434,-65.038 m 29.18,59.254 c -6,-10.057 -12.021,-20.103 -18.076,-30.127 -0.469,0.392 -1.148,0.696 -1.692,0.727 0.121,0.405 0.251,0.81 0.373,1.216 0.102,0.343 -0.315,0.798 -0.871,1.147 6.814,8.967 13.562,17.987 20.266,27.037 M 99.265,186.43 c -1.828,-2.486 -3.641,-4.939 -5.44,-7.356 2.584,6.04 5.147,12.176 7.668,18.395 0.305,0.753 -1.309,2.026 -2.282,2.042 1.563,2.242 3.125,4.484 4.688,6.727 2.28,2.338 4.559,4.676 6.838,7.015 -3.4,-9.105 -7.254,-18.136 -11.472,-26.823 m 1.366,26.125 c 0.125,-0.142 0.278,-0.282 0.451,-0.415 -0.326,-0.394 -0.652,-0.788 -0.978,-1.181 0.176,0.532 0.351,1.064 0.527,1.596 m -7.548,-0.034 c -0.646,0.37 -1.325,0.531 -1.516,0.185 -0.108,-0.196 -0.217,-0.388 -0.326,-0.584 3.369,7.636 6.739,15.272 10.108,22.907 l 4.611,4.364 c -0.566,-1.715 -1.132,-3.429 -1.698,-5.144 -3.726,-7.242 -7.452,-14.485 -11.179,-21.728 m 7.248,26.124 c 3.395,4.852 6.79,9.704 10.186,14.555 -0.787,-2.382 -1.573,-4.765 -2.359,-7.147 -2.609,-2.47 -5.218,-4.939 -7.827,-7.408 m -7.62,-14.74 c -1.618,-3.665 -3.235,-7.331 -4.852,-10.996 -0.29,0.507 -1.516,1.142 -2.353,1.239 2.401,3.252 4.803,6.504 7.205,9.757 m -5.263,-11.927 c -2.057,-4.663 -4.114,-9.325 -6.172,-13.988 -0.065,-0.025 -0.138,-0.038 -0.181,-0.094 -5.358,-6.979 -10.716,-14.033 -16.073,-21.232 5.733,8.467 11.467,16.758 17.201,24.973 0.269,0.386 -0.595,1.039 -1.507,1.374 2.241,2.983 4.47,5.916 6.732,8.967 m -8.104,19.236 c -1.453,-2.12 -2.907,-4.24 -4.36,-6.36 -0.268,0.241 -0.582,0.458 -0.906,0.623 1.755,1.912 3.511,3.825 5.266,5.737 m -8.54,-25.092 c -5.843,-9.066 -11.63,-18.171 -17.316,-27.335 -2.645,-3.076 -5.29,-6.183 -7.934,-9.323 7.382,11.351 14.849,22.629 22.407,33.865 0.146,0.173 0.292,0.344 0.439,0.517 0.801,0.759 1.603,1.517 2.404,2.276 m -0.943,21.904 c -2.079,-2.747 -4.159,-5.494 -6.239,-8.241 0.425,0.793 0.846,1.589 1.272,2.381 0.099,0.185 0.058,0.42 -0.067,0.666 1.678,1.732 3.356,3.463 5.034,5.194 M 63.518,213.97 c 0.447,0.487 0.894,0.975 1.341,1.462 -1.128,-1.459 -2.256,-2.918 -3.384,-4.376 -0.333,-0.432 0.593,-1.304 1.51,-1.739 -4.778,-5.856 -9.557,-11.773 -14.335,-17.802 4.055,7.788 8.173,15.547 12.312,23.291 0.72,-0.696 2.102,-1.33 2.556,-0.836 m -9.777,14.53 c -5.177,-7.08 -10.353,-14.16 -15.53,-21.24 -1.626,-1.856 -3.252,-3.715 -4.878,-5.59 1.897,4.158 3.794,8.287 5.691,12.389 4.906,4.882 9.812,9.676 14.717,14.441 M 32.752,217.354 c -0.756,-0.962 -1.512,-1.924 -2.268,-2.886 -0.256,-0.286 -0.512,-0.568 -0.768,-0.855 0.12,0.284 0.24,0.567 0.36,0.851 0.892,0.973 1.784,1.922 2.676,2.89 m -2.222,2.66 c -0.848,-0.92 -1.696,-1.826 -2.544,-2.75 -0.17,-0.001 -0.313,-0.051 -0.404,-0.179 -0.336,-0.471 -0.505,-0.706 -0.841,-1.178 C 20.994,209.631 15.247,203.252 9.5,196.78 c 2.606,3.909 5.222,7.813 7.849,11.71 4.393,3.841 8.787,7.682 13.181,11.524 m -4.954,6.763 c -0.986,-1.43 -1.953,-2.873 -2.934,-4.306 -4.249,-5.099 -8.498,-10.198 -12.747,-15.297 -0.504,-0.477 -1.009,-0.953 -1.513,-1.43 0.498,1.404 0.995,2.826 1.493,4.224 5.234,5.677 10.467,11.281 15.701,16.809 M 6.543,226.48 c -0.196,0.392 -0.619,0.83 -1.083,1.16 L 17.533,238.609 6.543,226.48 Z m -1.507,-30.2 c 0.246,0.702 0.493,1.391 0.739,2.091 0.521,0.456 1.042,0.911 1.563,1.366 -0.764,-1.154 -1.541,-2.301 -2.302,-3.457 m 8.565,-12.793 c -0.556,-0.483 -1.111,-0.966 -1.667,-1.45 0.81,1.107 1.62,2.213 2.43,3.316 -0.254,-0.621 -0.508,-1.243 -0.763,-1.866 M 12.52,172.053 c 2.773,3.353 5.546,6.682 8.318,9.983 -1.072,-2.412 -2.145,-4.835 -3.218,-7.268 -3.447,-5.196 -6.893,-10.45 -10.339,-15.75 1.746,4.372 3.493,8.718 5.239,13.035 m 2.996,-34.637 c 1.476,1.646 3.002,3.247 4.554,4.824 -1.018,-2.087 -2.036,-4.169 -3.055,-6.27 -1.336,-2.241 -2.672,-4.49 -4.008,-6.748 -0.142,-0.238 0.042,-0.52 0.378,-0.774 -3.497,-7.273 -6.993,-14.626 -10.49,-22.03 -3.717,-2.699 -7.707,-5.046 -11.931,-7.015 2.552,5.762 5.461,11.332 8.716,16.678 5.252,7.132 10.525,14.248 15.836,21.335 m 6.028,-18.931 c 3.242,4.753 6.491,9.5 9.759,14.234 -0.526,-1.543 -1.053,-3.087 -1.579,-4.63 -3.161,-5.094 -6.317,-10.191 -9.446,-15.31 -4.559,-6.882 -9.118,-13.858 -13.677,-20.88 5.977,10.755 8.966,16.098 14.943,26.586 m -0.497,-15.83 c -0.533,-1.563 -1.067,-3.127 -1.6,-4.69 C 14.526,90.624 9.58,83.3 4.576,76.013 c 5.453,8.907 10.939,17.789 16.471,26.642 m -3.98,-22.068 c 0.038,0.111 0.076,0.221 0.113,0.332 11.609,17.569 23.416,34.976 35.613,52.148 -0.553,-1.185 -1.106,-2.373 -1.659,-3.564 C 39.844,113.151 28.504,96.837 17.067,80.587 m 46.17,57.699 c -4.253,-5.872 -8.505,-11.867 -12.758,-17.986 1.118,2.423 2.236,4.833 3.354,7.232 5.891,8.5 11.661,16.839 17.307,25.062 -2.634,-4.719 -5.269,-9.486 -7.903,-14.308 m 1.853,-5.046 c 4.696,6.59 7.043,9.818 11.739,16.169 -0.502,-1.075 -1,-2.154 -1.506,-3.23 -4.093,-5.088 -6.14,-7.673 -10.233,-12.939 m 6.191,-3.261 c 1.753,3.626 3.48,7.237 5.189,10.834 2.203,3.161 4.368,6.315 6.451,9.499 3.83,4.659 5.745,6.971 9.678,11.884 -7.123,-10.729 -14.27,-21.438 -21.318,-32.217 M 32.841,49.673 c 0.594,2.355 1.172,4.715 1.722,7.083 6.216,12.111 12.338,24.252 18.461,36.327 6.069,9.912 12.303,19.745 18.687,29.457 -13.532,-24 -26.356,-48.354 -38.87,-72.867 m 53.598,145.054 c 1.167,2.36 2.342,4.74 3.521,7.131 1.905,2.122 3.809,4.245 5.713,6.367 -0.479,-1.451 -0.958,-2.902 -1.437,-4.354 -0.379,-0.458 -0.758,-0.916 -1.137,-1.374 -0.172,-0.045 -0.323,-0.113 -0.419,-0.231 -2.102,-2.565 -4.182,-5.075 -6.241,-7.539 m 4.187,-14.678 c -1.807,-4.213 -3.621,-8.377 -5.447,-12.444 -2.151,-2.79 -4.302,-5.601 -6.453,-8.436 3.946,6.957 7.866,13.745 11.9,20.88 M 72.281,166.13 c 6.57,8.587 13.156,17.149 19.705,25.739 0.264,-0.16 0.54,-0.288 0.798,-0.362 -7.258,-9.556 -14.754,-18.926 -22.017,-28.478 0.606,1.243 0.908,1.863 1.514,3.101 m -8.727,1.253 c 3.243,4.646 4.865,6.942 8.108,11.497 -1.315,-2.141 -2.632,-4.29 -3.966,-6.438 -1.657,-2.013 -2.485,-3.024 -4.142,-5.059 m 2.065,-16.825 c -0.991,-1.446 -1.977,-2.902 -2.975,-4.356 0.162,0.339 0.324,0.678 0.486,1.016 0.829,1.118 1.659,2.231 2.489,3.34 m -16.056,15.425 c 0.21,0.342 0.419,0.675 0.629,1.017 3.694,5.279 7.389,10.558 11.083,15.837 0.739,0.846 1.477,1.703 2.216,2.544 -5.571,-7.628 -8.357,-11.498 -13.928,-19.398 m 12.359,-13.602 c -0.497,-1.039 -0.994,-2.08 -1.492,-3.124 -13.555,-18.585 -26.527,-37.575 -39.28,-56.702 0.446,1.307 0.892,2.614 1.338,3.92 1.122,1.667 2.246,3.334 3.365,5.001 0.194,0.057 0.357,0.152 0.46,0.306 11.585,17.083 23.414,33.946 35.609,50.599 m -9.318,-3.856 c -8.541,-13.284 -17.166,-26.509 -25.892,-39.666 0.698,2.043 1.395,4.087 2.092,6.131 3.18,5.029 6.374,10.049 9.593,15.056 5.683,7.544 8.524,11.242 14.207,18.479 m -8.854,1.923 c -2.091,-3.287 -4.149,-6.591 -6.222,-9.887 0.246,0.72 0.492,1.441 0.737,2.161 1.817,2.583 3.643,5.16 5.485,7.726 m 3.452,27.799 c -3.323,-5.109 -9.125,-14.231 -11.849,-18.521 -0.017,-0.013 -0.034,-0.025 -0.051,-0.038 2.519,4.043 7.739,12.408 10.742,17.124 0.386,0.479 0.772,0.958 1.158,1.435 m -0.049,17.672 c -2.393,-4.583 -4.786,-9.204 -7.179,-13.868 -2.16,-2.325 -4.32,-4.668 -6.48,-7.029 4.553,7.082 9.106,14.043 13.659,20.897 m -7.965,-5.879 c 3.323,5.611 6.645,11.137 9.967,16.624 1.218,1.257 2.437,2.514 3.655,3.771 -4.566,-6.78 -9.111,-13.576 -13.622,-20.395 m -7.273,-42.131 c 1.715,2.121 3.429,4.227 5.144,6.32 -3.478,-4.969 -6.955,-9.938 -10.433,-14.907 1.757,2.866 3.516,5.732 5.289,8.587 m -8.621,11.049 c 0.655,0.737 1.311,1.473 1.966,2.207 -1.207,-1.611 -2.415,-3.229 -3.623,-4.853 0.552,0.883 1.104,1.765 1.657,2.646 m 3.131,35.554 c -0.904,-0.768 -1.807,-1.538 -2.711,-2.31 2.509,4.345 5.019,8.653 7.528,12.923 -1.606,-3.516 -3.211,-7.053 -4.817,-10.613 m 5.449,-4.651 c -5.078,-8.389 -10.157,-16.933 -15.236,-25.625 -0.013,-0.017 -0.025,-0.034 -0.038,-0.051 1.24,2.838 2.479,5.662 3.719,8.474 3.852,5.809 7.704,11.544 11.555,17.202 m 62.844,-19.81 c 2.129,3.904 4.201,7.894 6.202,11.959 0.416,0.58 0.824,1.165 1.239,1.746 0.021,-0.632 1.101,-1.467 1.98,-1.723 -3.18,-4.087 -6.324,-8.089 -9.421,-11.982 m 7.939,-15.628 c -0.837,-2.48 -1.66,-4.955 -2.509,-7.414 -0.952,-1.24 -1.878,-2.486 -2.815,-3.714 1.74,3.683 3.525,7.389 5.324,11.128 M 49.676,75.569 c 0,0 28.678,51.739 43.639,77.293 4.823,6.661 9.788,13.546 14.915,20.625 -1.065,-2.153 -2.109,-4.3 -3.155,-6.434 C 86.365,136.67 49.679,75.568 49.676,75.569 M 53.753,66.37 C 59.941,76.6 66.309,86.746 72.85,96.754 71.543,93.618 70.243,90.462 68.958,87.282 63.889,80.522 58.821,73.545 53.753,66.37 m 11.017,1.555 c 2.257,5.87 4.557,11.668 6.885,17.396 3.567,4.72 7.135,9.33 10.703,13.834 C 80.769,95.149 79.163,91.125 77.524,87.084 73.273,80.862 69.021,74.475 64.77,67.925 m 5.389,-23.046 c -2.807,-4.939 -5.614,-9.958 -8.421,-15.052 -2.011,-2.681 -4.022,-5.396 -6.033,-8.144 4.754,7.973 9.577,15.718 14.454,23.196 M 51.046,30.115 c 0.159,0.463 0.315,0.926 0.474,1.388 3.336,5.992 6.673,11.892 10.009,17.688 0.128,0.184 0.256,0.369 0.385,0.553 -1.081,-2.519 -2.169,-5.047 -3.268,-7.586 -2.533,-3.96 -5.067,-7.976 -7.6,-12.043 M 57.99,-0.631 c -0.444,-0.453 -0.889,-0.906 -1.334,-1.359 3.347,5.938 6.713,11.864 10.124,17.769 0.736,0.946 1.472,1.886 2.208,2.822 C 65.324,12.189 61.658,5.778 57.99,-0.631 m 21.048,-2.891 c -3.949,-2.863 -7.911,-5.883 -11.896,-9.008 0.516,0.936 1.032,1.871 1.548,2.807 C 80.883,4.282 93.611,17.663 106.438,31.124 97.288,19.584 88.08,8.103 79.038,-3.522 m 31.118,30.209 C 105.455,20.401 100.811,14.247 96.208,8.191 93.754,6.513 91.3,4.873 88.849,3.262 c 7.953,9.241 15.835,18.55 23.621,27.931 -0.773,-1.506 -1.544,-3.009 -2.314,-4.506 m 2.416,-6.449 c -0.268,0.192 -0.566,0.361 -0.861,0.483 0.338,0.602 0.673,1.203 1.013,1.807 2.755,3.507 4.14,5.277 6.926,8.856 0.399,-0.144 0.823,-0.233 1.186,-0.226 -2.793,-3.672 -5.543,-7.31 -8.264,-10.92 M 111.624,-5.46 c -0.686,0.389 -1.455,0.58 -1.743,0.219 -1.875,-2.354 -3.751,-4.707 -5.627,-7.061 -0.725,-0.673 -1.45,-1.347 -2.175,-2.02 2.836,3.912 5.671,7.823 8.497,11.736 1.499,2.076 3.002,4.169 4.51,6.27 0.436,-0.194 0.851,-0.25 1.097,-0.042 4.962,4.201 9.964,8.493 15.004,12.877 -4.364,-5.36 -8.761,-10.694 -13.155,-16.03 -2.136,-1.983 -4.272,-3.966 -6.408,-5.949 m 5.135,-10.751 c 0.96,1.873 1.888,3.763 2.763,5.682 2.832,2.25 5.662,4.525 8.489,6.857 0.263,-0.105 0.529,-0.173 0.783,-0.215 -1.657,-1.774 -3.313,-3.548 -4.969,-5.322 -0.338,0.063 -0.629,0.028 -0.796,-0.154 -2.09,-2.283 -4.18,-4.565 -6.27,-6.848 m 89.317,100.052 c 8.87,7.829 17.859,15.526 26.821,23.248 -20.792,-20.833 -41.144,-42.051 -61.425,-63.381 11.527,13.385 23.036,26.784 34.604,40.133 m -20.823,34.713 c 0.491,0.598 0.991,1.188 1.483,1.784 C 179.67,109.725 172.602,99.114 165.524,88.509 155.142,75.534 134.73,49.306 134.728,49.307 c 0,0 17.922,25.053 26.865,37.33 7.724,10.604 15.78,21.273 23.66,31.917 m -12.79,-5.594 c 0,0 -7.649,-10.831 -11.451,-16.196 -0.071,-0.091 -0.142,-0.182 -0.214,-0.272 -1.145,-1.316 -2.29,-2.63 -3.434,-3.939 5.006,6.739 15.099,20.408 15.099,20.407 m 9.921,18.949 c -10.183,-13.826 -20.357,-27.659 -30.608,-41.436 3.494,5.966 7.039,11.982 10.621,18.034 6.648,7.766 13.331,15.616 19.987,23.402 m -16.217,-10.466 c -1.817,-3.046 -3.621,-6.089 -5.419,-9.122 -2.702,-3.195 -5.399,-6.375 -8.086,-9.533 0.469,0.928 0.938,1.858 1.408,2.788 4.014,5.245 8.05,10.544 12.097,15.867 m 31.026,50.935 c -4.211,-6.735 -8.448,-13.58 -12.66,-20.474 -0.95,-1.555 -1.891,-3.117 -2.839,-4.676 -6.582,-8.677 -13.158,-17.36 -19.748,-26.031 1.321,2.621 2.644,5.25 3.97,7.883 10.409,14.445 20.815,28.892 31.277,43.298 m -16.318,-6.102 c -3.219,-6.401 -6.445,-12.817 -9.664,-19.219 -3.344,-4.209 -6.669,-8.432 -9.966,-12.648 6.648,10.555 13.181,21.19 19.63,31.867 m -34.698,-22.393 c 13.773,15.94 27.878,31.611 42.479,46.798 -2.138,-3.205 -4.284,-6.43 -6.436,-9.667 -18.782,-24.334 -37.515,-48.699 -56.612,-72.786 3.595,6.504 7.233,13.11 10.909,19.803 3.196,5.228 6.418,10.517 9.66,15.852 m -17.135,-20.036 c 1.226,1.448 2.456,2.904 3.697,4.362 -2.825,-4.612 -4.229,-6.898 -7.016,-11.421 1.116,2.338 2.21,4.695 3.319,7.059 m -14.203,-11.498 c 7.605,12.713 15.15,25.46 22.654,38.232 -2.698,-6.098 -5.43,-12.135 -8.181,-18.098 -3.407,-4.854 -6.767,-9.739 -10.125,-14.335 -1.416,-1.939 -2.909,-3.879 -4.348,-5.799 M 92.006,48.171 c 8.077,14.255 16.1,28.541 24.066,42.858 13.672,16.806 26.993,33.893 40.276,51.007 C 135.297,110.468 113.975,79.107 92.006,48.171 m 57.952,45.865 c -4.483,-7.643 -8.877,-15.2 -13.19,-22.641 2.991,5.89 6.012,11.849 9.059,17.87 1.374,1.583 2.751,3.174 4.131,4.771 m 3.583,17.932 c -0.892,-1.77 -1.783,-3.535 -2.673,-5.296 -7.677,-10.046 -23.235,-29.986 -23.236,-29.985 0,0 17.32,23.484 25.909,35.281 M 115.933,75.047 c -5.458,-7.281 -15.916,-21.369 -15.916,-21.368 0,0 50.391,73.561 50.392,73.561 0,0 -22.877,-34.864 -34.476,-52.193 m 35.231,41.172 c -9.321,-13.356 -28.215,-39.89 -28.215,-39.889 0,0 11.832,17.243 17.779,26.241 3.434,4.511 6.912,9.067 10.436,13.648 M 123.3,28.109 c -0.533,-0.419 -1.061,-0.841 -1.594,-1.257 6.254,8.277 12.695,16.718 19.332,25.307 -5.185,-7.621 -7.751,-11.37 -12.826,-18.732 -1.643,-1.786 -3.28,-3.558 -4.912,-5.318 m 5.347,-6.754 c -1.222,-1.273 -2.441,-2.539 -3.658,-3.799 4.127,5.812 8.296,11.721 12.508,17.731 3.077,2.549 6.147,5.154 9.221,7.796 -7.312,-8.889 -10.93,-13.242 -18.071,-21.728 m 2.012,-10.668 c 4.883,6.014 9.814,12.143 14.793,18.383 3.576,3.18 5.372,4.787 8.972,8.025 -7.851,-8.864 -15.77,-17.674 -23.765,-26.408 m 56.04,55.72 C 168.784,45.523 150.806,24.704 132.517,4.145 c -3.466,-2.956 -6.943,-5.821 -10.42,-8.645 0.209,0.523 0.43,1.04 0.633,1.565 21.062,22.273 41.686,44.926 62.186,67.72 0.595,0.541 1.189,1.082 1.783,1.622 M 145.189,52.11 c -0.098,-0.109 -0.197,-0.219 -0.295,-0.329 8.245,12.181 16.454,24.384 24.638,36.607 1.33,1.656 2.654,3.32 3.992,4.976 C 164.13,79.578 154.7,65.817 145.189,52.11 m 56.806,39.161 C 192.781,80.797 183.595,70.299 174.412,59.798 168.88,54.74 163.354,49.694 157.855,44.712 c 1.037,1.316 2.077,2.636 3.117,3.959 13.679,14.196 27.313,28.435 41.023,42.6 m 2.636,11.984 c -2.153,-2.308 -4.314,-4.639 -6.483,-6.985 0.64,0.818 1.28,1.635 1.919,2.451 1.526,1.521 3.047,3.033 4.564,4.534 M 178.196,76.674 c 0.805,0.816 1.611,1.633 2.417,2.449 -0.57,-0.732 -1.139,-1.465 -1.708,-2.197 -0.75,-0.716 -1.494,-1.44 -2.245,-2.155 0.511,0.634 1.024,1.269 1.536,1.903 m -2.992,1.462 c -2.955,-3.001 -5.908,-6 -8.855,-8.986 6.353,7.831 12.746,15.755 19.128,23.652 5.924,6.721 11.833,13.408 17.674,19.934 -9.34,-11.514 -18.647,-23.054 -27.947,-34.6 M 75.097,29.273 c -0.074,0.045 -0.148,0.088 -0.223,0.127 1.571,2.6 3.141,5.173 4.712,7.72 -1.486,-2.597 -2.982,-5.213 -4.489,-7.847 m 8.592,-11.82 c 6.19,7.675 9.351,11.242 15.73,18.985 2.74,3.326 5.5,6.698 8.28,10.118 9.818,10.728 19.523,21.534 29.156,32.428 C 133.033,71.451 129.258,64.031 125.533,56.728 109.161,38.88 92.202,21.591 76.03,3.575 c 2.553,4.626 5.106,9.252 7.659,13.878 M 68.875,57.836 c 0.607,1.425 1.2,2.85 1.801,4.269 5.007,6.931 10.014,13.63 15.021,20.096 C 80.089,74.376 74.482,66.255 68.875,57.836 m 48.492,52.142 c 1.011,1.21 2.032,2.423 3.055,3.642 -4.502,-9.326 -9.052,-18.426 -13.636,-27.276 -1.404,-2.233 -2.103,-3.343 -3.494,-5.549 C 94.248,70.015 85.124,59.314 76.181,48.45 c 5.717,9.794 11.666,19.461 17.619,29.113 7.925,10.758 15.774,21.561 23.567,32.415 m -11.334,-4.88 C 103.288,100.5 100.571,95.969 97.882,91.505 93.994,86.78 90.193,82.157 86.503,77.594 c 6.587,9.111 13.098,18.283 19.53,27.504 m -0.007,24.103 c -3.601,-5.641 -7.153,-11.164 -10.653,-16.567 -3.841,-5.518 -5.733,-8.206 -9.478,-13.504 1.145,2.885 2.275,5.784 3.404,8.704 5.454,6.837 11.031,13.962 16.727,21.367 m -18.355,1.289 c -3.165,-4.247 -6.256,-8.393 -9.303,-12.735 4.369,7.062 8.711,13.875 13.169,21.021 -1.299,-2.78 -2.6,-5.536 -3.866,-8.286 m 5.184,-3.897 c -2.064,-5.622 -4.156,-11.177 -6.276,-16.663 -3.322,-4.139 -6.626,-8.288 -9.939,-12.565 2.087,4.942 4.203,9.828 6.345,14.662 3.264,4.826 6.534,9.605 9.87,14.566 m 56.663,65.976 c 3.719,6.035 7.453,12.106 11.186,18.176 0.769,0.575 1.537,1.15 2.305,1.725 -0.83,-2.172 -1.651,-4.344 -2.497,-6.516 -3.104,-4.655 -6.207,-9.307 -9.301,-13.939 -0.5,0.342 -1.17,0.579 -1.693,0.554 m 0.53,-12.391 c -1.25,-2.16 -2.498,-4.315 -3.743,-6.465 -2.315,-3.223 -4.622,-6.428 -6.919,-9.61 3.533,5.308 7.09,10.674 10.662,16.075 m 120.119,20.738 C 241.142,165.204 211.397,130.092 182.493,94.281 176.01,86.904 169.517,79.503 163.064,72.196 c 11.115,16.235 22.195,32.494 33.292,48.742 23.494,27.642 48.835,53.689 73.811,79.978 m -5.41,0.416 c 0.054,-0.223 0.266,-0.488 0.556,-0.743 -1.146,-1.202 -2.303,-2.412 -3.442,-3.609 -16.671,-17.518 -33.307,-35.086 -49.617,-52.955 4.33,6.276 8.825,12.703 13.45,19.286 12.849,12.856 25.885,25.503 39.053,38.021 m -54.025,-53.564 c -5.759,-8.309 -11.629,-16.878 -17.535,-25.532 -1.77,-2.089 -3.533,-4.2 -5.299,-6.314 5.79,8.681 11.565,17.326 17.257,25.777 1.861,2.056 3.718,4.085 5.577,6.069 m -0.449,4.29 c 10.641,14.067 21.343,28.362 32.09,42.074 2.05,2.615 4.232,5.27 6.37,7.941 -7.63,-10.873 -15.276,-21.741 -22.905,-32.609 -1.119,-1.594 -2.23,-3.181 -3.333,-4.758 -4.242,-4.298 -8.243,-8.434 -12.222,-12.648 m 64.349,-7.933 c 5.7,5.233 11.413,10.56 17.087,15.93 -13.877,-15.6 -27.958,-30.983 -42.252,-46.201 8.453,10.04 16.839,20.125 25.165,30.271 m -50.294,-39.697 c 16.233,18.048 32.368,36.191 48.21,54.557 0.563,-0.285 1.13,-0.44 1.392,-0.287 1.932,1.129 3.864,2.257 5.797,3.386 -2.745,-3.68 -5.511,-7.34 -8.31,-10.968 -4.827,-6.26 -9.825,-12.383 -14.76,-18.351 -10.721,-9.513 -21.5,-18.947 -32.329,-28.337 M 120.266,-24.257 c 0.786,1.805 1.571,3.609 2.356,5.413 5.3,6.811 10.601,13.621 15.901,20.432 0.363,0.467 -0.7,1.404 -1.677,1.796 0.89,0.899 1.772,1.778 2.664,2.683 4.676,4.055 9.396,8.209 14.003,12.483 28.54,26.472 81.723,84.022 81.728,84.018 0,0 -18.173,-21.416 -27.149,-32.222 -29.1,-31.74 -58.148,-63.448 -87.826,-94.603 m 22.487,9.322 c -0.112,-0.079 -0.225,-0.158 -0.337,-0.237 3.411,4.073 6.84,8.187 10.29,12.35 8.505,7.987 16.953,16.036 25.37,24.114 C 166.369,9.15 154.632,-2.961 142.753,-14.935 m 34.636,42.214 c 2.48,3.049 4.965,6.11 7.452,9.175 17.055,17.504 34.744,33.882 53.389,49.696 C 217.612,66.848 197.406,47.203 177.389,27.279 M 166.478,1.697 c -3.305,-2.317 -6.61,-4.634 -9.915,-6.951 26.697,27.262 53.14,54.813 80.504,81.416 10.195,9.183 20.324,18.42 30.388,27.746 -0.612,-0.852 -1.226,-1.692 -1.84,-2.539 C 259.762,94.872 253.909,88.374 248.055,81.876 220.654,55.348 193.609,28.455 166.478,1.697 m 45.411,41.223 c 10.528,10.051 21.129,20.02 31.731,29.992 0.126,-0.046 0.238,-0.082 0.333,-0.107 -1.231,-1.566 -2.46,-3.134 -3.691,-4.674 C 230.778,59.759 221.261,51.42 211.889,42.92 m 19.03,7.77 c 3.808,4.582 7.66,9.292 11.526,14.093 -1.958,-2.889 -3.916,-5.778 -5.874,-8.667 -1.886,-1.807 -3.763,-3.622 -5.652,-5.426 m 17.623,16.956 c 1.232,1.818 2.464,3.636 3.696,5.454 0.72,0.066 1.435,0.155 2.152,0.241 -1.948,-1.899 -3.894,-3.801 -5.848,-5.695 m 11.607,3.838 c 1.264,1.204 2.525,2.411 3.786,3.618 0.828,0.207 1.654,0.42 2.474,0.655 -2.086,-1.424 -4.173,-2.849 -6.26,-4.273 M 218.937,32.858 c 8.887,8.253 17.766,16.506 26.596,24.799 5.967,4.074 11.934,8.147 17.901,12.22 -0.24,-0.385 -0.48,-0.77 -0.719,-1.155 C 248.196,56.676 233.553,44.787 218.937,32.858 m -41.266,-47.223 -6.283,-4.388 c 8.136,8.842 16.093,17.848 23.881,26.998 15.188,13.338 30.793,26.086 46.534,38.764 C 235.55,40.89 229.439,34.787 223.555,29.135 208.546,14.72 193.198,0.045 177.671,-14.365 m 23.39,12.063 c -5.813,-5.446 -11.602,-10.923 -17.36,-16.452 -0.281,0.153 -0.573,0.27 -0.841,0.331 3.449,3.666 6.903,7.342 10.359,11.025 2.738,1.912 5.477,3.824 8.215,5.736 -0.122,-0.215 -0.25,-0.426 -0.373,-0.64 m 42.213,33.26 c 1.572,1.354 3.151,2.716 4.739,4.09 -1.747,-1.63 -3.483,-3.243 -5.21,-4.848 0.157,0.253 0.314,0.505 0.471,0.758 m -8.671,2.08 c 4.468,3.964 8.911,7.945 13.338,11.939 -0.394,-0.634 -0.789,-1.267 -1.183,-1.901 -4.04,-3.358 -8.091,-6.705 -12.155,-10.038 M 207.45,3.656 c -0.333,0.365 -0.856,0.712 -1.351,0.921 11.036,9.601 22.285,18.918 33.643,28.169 C 228.793,23.209 218.064,13.497 207.45,3.656 m 28.033,14.891 c -0.66,-0.748 -1.317,-1.493 -1.973,-2.238 -1.03,-0.782 -1.543,-1.171 -2.565,-1.949 1.501,1.388 3.014,2.784 4.538,4.187 m -7.392,-0.675 c 2.123,1.838 4.279,3.697 6.448,5.565 -0.113,-0.181 -0.226,-0.363 -0.338,-0.544 -0.059,-0.095 -0.071,-0.201 -0.05,-0.314 -2.038,-1.58 -4.063,-3.151 -6.06,-4.707 m -41.063,-45.815 c 5.283,6.092 10.094,12.601 14.37,19.486 2.098,1.801 4.195,3.604 6.295,5.401 -1.492,-1.496 -2.949,-3.002 -4.416,-4.512 -0.782,-0.805 2.141,-2.359 2.866,-1.758 6.158,5.11 9.416,7.647 16.153,12.821 -0.574,-0.664 -1.147,-1.326 -1.717,-1.988 -11.414,-9.567 -22.49,-19.494 -33.551,-29.45 m 8.218,2.804 c 3.625,3.159 7.256,6.308 10.914,9.414 -1.251,-1.577 -2.504,-3.152 -3.755,-4.729 -2.386,-1.562 -4.773,-3.124 -7.159,-4.685 m 0.922,-3.171 c -3.928,-4.946 -7.874,-9.872 -11.809,-14.811 0.313,2.566 0.626,5.132 0.94,7.698 3.623,2.371 7.246,4.742 10.869,7.113 M 51.911,-3.962 c -1.206,-2.171 -2.398,-4.35 -3.597,-6.525 -1.384,-1.411 -2.769,-2.821 -4.154,-4.231 2.572,3.594 5.14,7.192 7.751,10.756 m -9.825,1.181 c 4.873,6.971 7.31,10.409 12.183,17.119 0.824,-0.436 2.295,-0.618 2.661,0.051 2.574,4.712 5.148,9.366 7.723,13.955 8.119,10.505 16.371,20.767 24.938,30.908 C 80.793,45.629 72.464,31.738 64.248,17.759 53.654,3.985 43.58,-10.157 33.572,-24.359 c 0.908,3.023 1.806,6.045 2.73,9.061 1.949,4.186 3.881,8.359 5.784,12.517 M 19.77,-21.018 c -0.719,0.672 -2.047,1.299 -2.535,0.837 -0.686,-0.649 -1.371,-1.298 -2.056,-1.948 7.431,11.781 14.863,23.571 22.357,35.311 0.108,-0.008 0.213,-0.009 0.318,-0.007 -0.177,-0.38 -0.353,-0.76 -0.53,-1.14 C 31.418,1.047 25.587,-9.984 19.77,-21.018 m 7.263,2.784 c 0.158,0.339 0.315,0.678 0.473,1.017 0.76,-0.444 2.4,-0.562 2.837,0.152 1.508,2.469 3.017,4.93 4.526,7.382 -0.429,-1.389 -0.869,-2.778 -1.294,-4.169 -3.149,-6.815 -6.373,-13.601 -9.629,-20.37 1.643,4.699 3.285,9.398 4.928,14.097 0.22,0.629 -0.892,1.574 -1.841,1.891 m 9.254,107.156 c 1.186,1.681 2.372,3.354 3.558,5.019 C 35.648,85.71 33.492,81.418 29.396,73.17 c -0.005,0.02 -0.005,0.04 -0.011,0.06 2.301,5.272 4.602,10.507 6.902,15.692 m 6.89,23.252 c -1.136,-2.503 -2.273,-5.017 -3.409,-7.544 -4.784,-7.11 -9.567,-14.367 -14.351,-21.734 -0.262,-0.403 0.435,-0.867 1.24,-1.116 -3.48,-5.445 -5.397,-8.474 -8.565,-13.512 0.507,0.902 1.015,1.803 1.523,2.704 0.477,0.848 -2.332,2.576 -2.935,1.803 -1.351,-1.735 -2.702,-3.47 -4.054,-5.205 0.23,0.672 0.459,1.345 0.689,2.017 10.079,14.099 19.971,28.368 29.862,42.587 M 15.433,63.549 c 0.51,0.905 1.02,1.811 1.53,2.716 0.054,-0.201 0.279,-0.405 0.594,-0.577 -0.708,-0.713 -1.416,-1.426 -2.124,-2.139 M 9.237,52.551 c 4.573,4.606 9.146,9.212 13.719,13.817 C 20.724,61.192 18.495,56.014 16.277,50.831 11.45,45.828 6.622,40.825 1.795,35.822 c 1.015,2.974 2.03,5.948 3.044,8.923 1.466,2.602 2.932,5.204 4.398,7.806 M 6.57,60.221 C 6.484,59.968 6.397,59.715 6.311,59.463 4.644,57.323 2.977,55.183 1.31,53.042 c 1.759,2.388 3.516,4.777 5.26,7.179 m 6.026,-28.756 c 0.529,0.724 1.057,1.447 1.585,2.171 -1.313,-2.345 -2.637,-4.684 -3.947,-7.033 0.784,1.623 1.577,3.241 2.362,4.862 m 267.831,41.073 11.446,13.567 c 3.479,3.399 6.934,6.824 10.373,10.267 1.786,1.219 3.573,2.439 5.36,3.659 -9.06,-9.165 -18.119,-18.329 -27.179,-27.493 m 24.124,129.554 c 1.56,1.868 3.111,3.731 4.658,5.592 0.348,0.233 0.696,0.466 1.045,0.699 -1.892,-2.092 -3.791,-4.188 -5.703,-6.291 M 43.626,234.46 c 3.313,3.13 6.627,6.26 9.94,9.39 -2.077,-2.644 -4.154,-5.288 -6.231,-7.932 -0.611,0.449 -1.306,0.697 -1.629,0.356 -0.61,-0.645 -1.22,-1.302 -1.83,-1.949 -0.083,0.048 -0.166,0.094 -0.25,0.135 M 3.931,203.491 c -0.342,-0.969 -0.684,-1.949 -1.026,-2.92 -1.354,-1.279 -2.709,-2.558 -4.063,-3.837 1.509,2.047 3.018,4.108 4.527,6.141 0.187,0.205 0.374,0.411 0.562,0.616 m -3.34,-52.362 c -0.839,-2.118 -1.678,-4.241 -2.517,-6.369 -0.127,-0.323 0.06,-0.759 0.386,-1.169 -1.427,-1.446 -2.876,-2.868 -4.342,-4.272 2.158,3.952 4.316,7.891 6.473,11.81 M -29.453,-52.746 C -7.924,-22.413 10.506,10.519 27.939,43.955 27.12,40.953 26.271,37.96 25.381,34.98 17.814,19.985 10.331,4.945 2.864,-10.105 c -0.113,-0.228 -0.063,-0.485 0.08,-0.736 -3.107,-4.908 -6.214,-9.817 -9.321,-14.725 -0.516,-0.815 2.274,-2.533 2.934,-1.802 1.252,1.385 2.504,2.77 3.756,4.155 -0.169,-0.445 -0.339,-0.89 -0.508,-1.335 -4.053,-7.886 -8.107,-15.771 -12.16,-23.656 -0.232,-0.45 0.315,-1.058 1.01,-1.477 -1.284,-2.2 -2.585,-4.391 -3.912,-6.567 -0.506,-0.829 2.277,-2.532 2.934,-1.802 4.364,4.844 8.728,9.689 13.093,14.533 -1.581,-3.241 -3.162,-6.482 -4.743,-9.722 -0.435,-0.892 2.296,-2.548 2.934,-1.803 5.244,6.121 10.488,12.242 15.732,18.364 -2.368,-5.098 -4.736,-10.195 -7.104,-15.292 -0.427,-0.919 2.251,-2.498 2.934,-1.802 1.565,1.594 3.131,3.189 4.697,4.784 -2.646,-7.567 -5.291,-15.134 -7.936,-22.701 -0.329,-0.94 2.259,-2.55 2.934,-1.802 2.971,3.29 5.942,6.579 8.913,9.869 -0.093,-0.337 -0.19,-0.675 -0.282,-1.011 -0.252,-0.913 2.064,-1.995 2.763,-1.188 6.316,7.294 12.23,14.904 17.718,22.625 -0.98,-1.852 -1.973,-3.702 -2.945,-5.563 -0.462,-0.883 2.567,-1.443 3.183,-0.446 1.138,1.838 2.276,3.671 3.414,5.498 0.092,-1.465 0.291,-2.925 0.612,-4.371 -0.18,-0.326 -0.36,-0.653 -0.541,-0.98 -0.03,-0.031 -0.06,-0.063 -0.09,-0.095 -0.05,-0.052 -0.066,-0.119 -0.067,-0.19 -3.789,-6.865 -7.577,-13.73 -11.366,-20.595 -0.475,-0.861 2.291,-2.541 2.934,-1.802 4.283,4.921 8.567,9.842 12.85,14.764 0.694,-0.677 1.909,-1.481 2.452,-0.842 7.32,8.611 14.64,17.223 21.96,25.835 -4.902,-8.057 -9.804,-16.113 -14.705,-24.169 -0.522,-0.858 2.233,-2.454 2.934,-1.803 3.483,3.233 6.965,6.466 10.447,9.699 -0.244,-0.958 -0.488,-1.917 -0.732,-2.875 -2.223,-4.468 -4.42,-8.943 -6.554,-13.432 -0.43,-0.906 2.599,-1.628 3.184,-0.74 1.213,1.843 2.452,3.67 3.683,5.503 0.382,-0.099 0.724,-0.084 0.909,0.149 7.904,9.918 15.807,19.835 23.711,29.753 0.432,-0.246 0.936,-0.451 1.36,-0.523 -3.897,-7.05 -7.794,-14.1 -11.69,-21.15 l -7.698,-8.245 c -0.564,-0.603 2.125,-2.448 2.787,-1.924 10.981,8.69 20.495,18.91 28.323,30.299 1.595,1.709 3.191,3.418 4.786,5.127 -5.634,-7.24 -11.269,-14.48 -16.903,-21.72 -0.235,-0.302 0.116,-0.776 0.645,-1.188 -1.083,-1.11 -2.157,-2.229 -3.243,-3.338 -0.63,-0.643 1.941,-2.815 2.699,-2.141 4.174,3.709 8.331,7.436 12.488,11.164 -2.41,-5.537 -4.82,-11.074 -7.229,-16.611 -0.395,-0.906 2.317,-2.572 2.934,-1.802 3.76,4.691 7.52,9.383 11.28,14.075 0.507,-0.189 0.989,-0.24 1.234,-0.022 6.411,5.717 12.822,11.434 19.234,17.152 -3.062,-5.045 -6.123,-10.089 -9.184,-15.133 -3.693,-4.009 -7.386,-8.018 -11.079,-12.026 -0.576,-0.626 2.113,-2.396 2.787,-1.925 0.34,0.238 0.68,0.475 1.02,0.713 0.665,-0.76 2.22,-1.486 2.685,-0.958 2.166,2.456 4.332,4.913 6.497,7.369 4.619,3.225 9.238,6.451 13.857,9.676 -0.233,-0.535 -0.467,-1.07 -0.7,-1.605 -4.622,-4.583 -9.274,-9.129 -13.999,-13.582 -0.636,-0.599 1.908,-2.78 2.703,-2.129 2.585,2.118 5.15,4.267 7.716,6.413 0.59,-0.839 2.31,-1.697 2.769,-1.095 2.463,3.233 4.927,6.465 7.39,9.698 4.378,3.752 8.738,7.529 13.068,11.344 -0.451,-1.265 -0.902,-2.53 -1.353,-3.794 -3.181,-3.334 -6.365,-6.665 -9.56,-9.983 -0.645,-0.669 1.913,-2.809 2.694,-2.15 1.34,1.131 2.671,2.277 4.01,3.41 0.436,-0.894 2.305,-1.888 2.868,-1.274 4.075,4.446 8.15,8.893 12.226,13.339 -1.899,-3.023 -3.797,-6.047 -5.695,-9.07 -1.197,-0.994 -2.405,-1.975 -3.633,-2.932 -7.087,-4.638 -14.174,-9.275 -21.261,-13.913 -0.885,-0.58 1.825,-2.486 2.64,-2.047 6.008,3.242 11.748,6.898 17.227,10.885 -1.231,-1.961 -2.462,-3.921 -3.693,-5.882 -0.524,-0.834 2.243,-2.483 2.934,-1.802 7.069,6.962 14.139,13.923 21.208,20.885 l -1.164,-9.537 c -2.661,-3.333 -5.309,-6.681 -7.977,-10.005 -0.641,-0.798 1.905,-2.702 2.689,-2.163 1.382,0.951 2.768,1.91 4.152,2.866 -0.099,-0.808 -0.197,-1.616 -0.296,-2.424 -0.72,-0.924 -1.44,-1.849 -2.16,-2.774 -0.572,-0.734 2.211,-2.48 2.934,-1.802 0.617,0.577 1.233,1.154 1.849,1.732 0.077,0.025 0.159,0.042 0.215,0.091 6.535,5.68 13.07,11.361 19.605,17.042 0.105,0.019 0.197,0.052 0.268,0.108 2.222,1.786 4.482,3.541 6.767,5.269 -0.478,-0.673 -0.956,-1.345 -1.434,-2.018 -0.135,-0.19 -0.071,-0.431 0.111,-0.678 -2.724,-4.353 -5.448,-8.707 -8.172,-13.06 -0.511,-0.817 2.404,-2.618 2.934,-1.802 3.163,4.87 6.325,9.74 9.488,14.611 3.61,2.282 7.22,4.564 10.83,6.847 -3.046,-4.297 -6.092,-8.594 -9.138,-12.891 -1.177,-1.283 -2.354,-2.565 -3.531,-3.848 -0.171,-0.186 -0.042,-0.487 0.238,-0.797 -1.623,-2.29 -3.246,-4.579 -4.869,-6.869 -0.537,-0.757 2.354,-2.621 2.934,-1.802 2.392,3.374 4.784,6.748 7.176,10.122 1.364,1.317 2.728,2.634 4.093,3.951 -2.677,-3.409 -5.257,-6.794 -8.636,-11.345 -0.597,-0.806 2.025,-2.798 2.814,-2.196 12.595,9.597 25.799,18.4 38.991,27.186 -2.207,-3.408 -4.413,-6.817 -6.619,-10.225 -1.028,-0.897 -2.055,-1.794 -3.082,-2.691 -0.246,-0.216 0.094,-0.683 0.62,-1.111 -3.386,-5.231 -6.772,-10.462 -10.158,-15.693 -0.539,-0.831 2.113,-2.268 2.787,-1.924 6.448,3.297 12.588,7.094 18.386,11.324 8.089,2.953 16.19,5.918 24.255,8.969 -1.501,-2.001 -3.002,-4.002 -4.503,-6.003 -0.539,-0.719 2.143,-2.406 2.787,-1.924 3.569,2.673 7.137,5.346 10.706,8.019 0.505,-0.089 0.936,-0.052 1.124,0.206 0.38,0.522 0.71,0.976 1.017,1.399 2.233,1.672 4.466,3.345 6.699,5.018 -0.084,-0.445 -0.168,-0.891 -0.253,-1.336 -2.363,-3.685 -4.726,-7.37 -7.089,-11.055 -0.517,-0.807 2.119,-2.329 2.787,-1.924 9.33,5.653 16.345,13.812 20.471,23.927 0.404,0.989 -2.616,2.582 -2.934,1.803 -2.845,-6.974 -7.052,-13.021 -12.475,-17.944 0.536,0.836 1.073,1.672 1.609,2.508 0.187,0.009 0.351,0.053 0.44,0.185 2.932,4.333 5.863,8.665 8.795,12.998 0.328,0.485 -0.588,1.287 -1.481,1.712 0.983,0.531 1.971,1.058 2.946,1.594 0.925,0.508 -2.368,2.42 -3.363,1.943 -1.532,-0.734 -2.591,-1.238 -3.773,-1.793 0.178,0.939 0.356,1.878 0.533,2.817 0.107,0.564 -0.986,1.374 -1.889,1.668 1.134,1.512 2.268,3.024 3.402,4.536 6.381,5.185 12.653,10.48 18.765,15.929 0.89,0.793 -2.365,2.604 -3.21,1.969 -2.455,-1.844 -4.954,-3.662 -7.463,-5.472 -0.707,0.619 -1.919,1.156 -2.334,0.889 -1.815,-1.167 -3.631,-2.335 -5.447,-3.502 1.725,3.273 3.249,6.697 4.505,10.295 0.387,1.108 -2.745,2.319 -3.507,1.79 -3.649,-2.472 -7.31,-4.904 -10.978,-7.319 -0.389,0.093 -0.736,0.085 -0.933,-0.087 l -2.428,-2.121 c -5.973,-3.9 -11.979,-7.744 -18.049,-11.542 -0.465,0.19 -0.9,0.244 -1.171,0.054 -0.365,-0.256 -0.731,-0.512 -1.096,-0.767 14.68,12.115 29.096,24.551 42.819,37.57 0.918,0.87 -2.452,2.616 -3.31,1.953 -4.288,-3.316 -8.642,-6.586 -13.036,-9.8 7.25,5.775 14.393,11.725 21.315,17.79 0.929,0.815 -2.374,2.58 -3.259,1.958 -11.961,-8.403 -24.262,-16.419 -36.695,-24.275 13.214,9.399 26.126,19.061 38.824,29.146 0.905,0.734 -2.355,2.68 -3.271,1.946 C 300.986,28.515 287.441,18.63 273.684,9.021 c 2.25,2.77 4.5,5.54 6.75,8.31 14.403,11.743 28.471,23.841 41.958,36.575 0.9,0.85 -2.36,2.674 -3.219,1.941 -7.231,-6.165 -14.61,-12.159 -22.098,-18.028 7.18,8.84 14.361,17.679 21.541,26.519 0.63,0.776 -2.139,2.19 -2.787,1.925 -3.317,-1.357 -6.547,-2.877 -9.703,-4.52 6.041,6.278 12.003,12.648 17.866,19.141 0.694,0.785 -1.169,1.982 -2.403,2.083 2.705,2.639 5.376,5.283 8.004,7.925 0.879,0.884 -2.296,2.7 -3.139,1.914 -7.403,-6.908 -14.958,-13.648 -22.613,-20.28 -0.132,0.002 -0.244,-0.022 -0.324,-0.079 -14.506,-10.366 -29.011,-20.732 -43.516,-31.099 21.522,20.434 42.402,41.44 62.135,63.472 0.142,0.159 0.168,0.338 0.123,0.519 1.021,1.074 2.036,2.148 3.047,3.221 0.867,0.921 -2.185,2.549 -3.121,1.885 -0.384,0.749 -2.24,1.858 -2.798,1.477 -1.863,-1.272 -3.727,-2.544 -5.59,-3.816 4.312,4.448 8.6,8.926 12.84,13.463 0.891,0.968 -2.358,2.613 -3.192,1.799 -7.264,-7.089 -14.791,-14.221 -22.45,-21.25 0.558,0.646 1.12,1.286 1.676,1.934 0.771,0.899 -2.221,3.326 -3.096,2.37 -6.86,-7.502 -13.849,-14.923 -20.902,-22.293 -0.653,-0.446 -1.307,-0.892 -1.961,-1.339 -0.567,-0.279 -1.132,-0.566 -1.706,-0.831 l 6.108,9.817 c 14.4,14.175 28.509,28.624 42.125,43.558 0.672,0.737 -1.034,1.844 -2.273,1.962 9.052,10.33 18.02,20.738 26.819,31.248 0.797,0.951 -2.152,2.733 -2.89,1.932 -13.668,-14.837 -27.651,-29.36 -41.936,-43.592 l 9.475,15.229 c 4.959,5.341 9.878,10.717 14.746,16.135 0.936,1.042 -2.361,2.333 -3.208,1.666 -0.302,-0.237 -0.608,-0.482 -0.911,-0.72 l 1.78,2.86 c 0.511,0.822 -2.276,2.533 -2.934,1.803 -5.962,-6.619 -11.924,-13.237 -17.887,-19.855 -0.773,-0.621 -1.543,-1.239 -2.318,-1.861 10.069,11.089 20.052,22.265 29.857,33.549 0.867,0.998 -2.373,2.517 -3.164,1.65 -6.664,-7.298 -13.419,-14.519 -20.217,-21.703 8.016,11.827 16.033,23.655 24.049,35.482 0.537,0.793 -2.25,2.512 -2.934,1.803 -0.867,-0.898 -1.734,-1.797 -2.601,-2.695 -0.537,0.726 -2.192,1.596 -2.703,1.298 -1.117,-0.653 -2.235,-1.306 -3.353,-1.959 -0.706,0.811 -2.107,1.513 -2.708,0.921 -2.105,-2.073 -4.221,-4.136 -6.333,-6.203 -6.543,-3.822 -13.087,-7.645 -19.63,-11.467 7.101,9.832 14.019,19.783 20.746,29.853 5.271,5.984 10.542,11.969 15.813,17.954 0.578,0.655 -2.116,2.372 -2.787,1.924 -3.343,-2.235 -6.686,-4.471 -10.029,-6.706 -0.2,0.878 -2.794,1.524 -3.489,0.779 -2.614,-2.8 -5.249,-5.585 -7.874,-8.377 -2.554,-1.708 -5.108,-3.416 -7.662,-5.123 11.126,12.716 22.251,25.433 33.377,38.149 0.566,0.647 -2.209,2.556 -2.934,1.803 -7.824,-8.129 -15.648,-16.257 -23.471,-24.386 5.758,7.679 11.517,15.357 17.275,23.036 0.536,0.714 -2.151,2.425 -2.787,1.925 -3.819,-3.009 -7.639,-6.017 -11.458,-9.025 5.671,7.238 11.335,14.48 16.996,21.721 0.576,0.738 -2.696,1.723 -3.471,0.951 -6.271,-6.25 -12.658,-12.794 -19.106,-19.436 -0.209,0.018 -0.416,0.017 -0.616,0.006 3.086,3.586 6.173,7.171 9.26,10.756 0.571,0.663 -2.202,2.53 -2.934,1.803 -3.575,-3.554 -7.149,-7.108 -10.723,-10.662 3.317,3.923 6.634,7.846 9.952,11.768 0.58,0.686 -2.193,2.488 -2.934,1.803 -13.53,-12.497 -27.06,-24.994 -40.59,-37.491 6.888,9.895 13.762,19.798 20.602,29.721 0.601,0.873 -2.981,1.524 -3.819,0.457 -0.215,-0.275 -0.431,-0.549 -0.647,-0.824 -0.689,0.393 -1.481,0.597 -1.804,0.265 -6.346,-6.523 -12.692,-13.047 -19.038,-19.571 2.969,4.1 5.948,8.217 8.939,12.363 0.582,0.807 -2.946,1.61 -3.775,0.511 -0.273,-0.362 -0.549,-0.722 -0.823,-1.084 -0.57,0.25 -1.136,0.335 -1.402,0.072 -6.438,-6.372 -12.876,-12.743 -19.314,-19.115 7.133,9.07 14.259,18.143 21.355,27.236 0.587,0.752 -2.835,1.499 -3.607,0.682 -0.972,-1.032 -1.939,-2.069 -2.911,-3.102 0.118,0.187 0.237,0.374 0.355,0.561 0.345,0.543 -0.748,1.457 -1.727,1.816 l 5.327,6.305 c 0.598,0.708 -2.182,2.429 -2.934,1.803 -4.636,-3.855 -9.272,-7.711 -13.908,-11.566 -0.829,0.436 -2.583,0.629 -3.082,0.193 -9.89,-8.67 -19.788,-17.329 -29.634,-26.049 1.075,1.846 2.155,3.669 3.21,5.484 0.152,0.262 -0.063,0.578 -0.432,0.86 4.904,8.274 9.809,16.549 14.713,24.824 0.506,0.854 -2.25,2.489 -2.934,1.802 -7.99,-8.016 -15.98,-16.032 -23.971,-24.047 4.375,6.214 8.75,12.429 13.125,18.643 0.317,0.45 -0.537,1.261 -1.424,1.694 0.104,0.136 0.208,0.271 0.311,0.407 0.34,0.444 -0.597,1.313 -1.524,1.738 0.126,0.175 0.251,0.35 0.377,0.525 0.538,0.748 -2.309,2.597 -2.934,1.803 -1.546,-1.965 -3.093,-3.929 -4.64,-5.894 -0.557,0.769 -2.168,1.597 -2.654,1.234 -5.254,-3.932 -10.509,-7.864 -15.763,-11.795 1.505,2.563 2.997,5.134 4.506,7.695 0.196,0.333 -0.174,0.667 -0.739,0.893 2.256,3.866 4.493,7.686 6.705,11.447 0.498,0.845 -2.742,1.763 -3.403,0.796 -7.102,-10.409 -14.123,-20.871 -21.123,-31.347 -0.582,-0.436 -1.164,-0.871 -1.746,-1.307 2.076,5.523 4.123,11.033 6.092,16.513 0.376,1.046 -2.925,1.515 -3.519,0.524 -2.325,-3.88 -4.66,-7.783 -6.999,-11.696 3.945,8.159 7.891,16.318 11.836,24.476 0.43,0.89 -2.404,2.607 -2.934,1.803 L 159.68,230.628 c 3.028,5.403 6.056,10.805 9.084,16.208 0.48,0.857 -2.421,2.613 -2.934,1.803 -13.666,-21.575 -27.332,-43.15 -40.997,-64.724 14.41,25.724 28.822,51.449 43.233,77.174 0.476,0.85 -2.323,2.569 -2.935,1.802 -18.559,-23.274 -37.117,-46.548 -55.676,-69.822 0.292,0.736 0.584,1.472 0.876,2.208 15.329,21.678 30.406,43.528 45.445,65.405 0.531,0.772 -2.853,1.403 -3.602,0.329 -11.978,-17.164 -23.992,-34.299 -36.133,-51.346 2.014,5.076 4.029,10.152 6.043,15.229 2.261,2.319 4.521,4.638 6.782,6.957 0.575,0.591 -2.156,2.518 -2.935,1.802 -0.194,-0.178 -0.389,-0.357 -0.584,-0.536 0.062,0.156 0.124,0.312 0.186,0.468 3.476,3.829 6.952,7.658 10.428,11.487 0.591,0.652 -2.168,2.465 -2.934,1.803 -1.126,-0.973 -2.252,-1.946 -3.378,-2.919 1.602,4.037 3.204,8.075 4.807,12.113 0.362,0.913 -2.371,2.607 -2.935,1.802 L 116.82,236.869 c -4.305,-4.799 -8.61,-9.597 -12.915,-14.395 l 3.291,9.973 c 2.713,5.273 5.426,10.546 8.139,15.818 0.369,0.719 -1.239,1.835 -2.275,1.948 1.378,4.177 2.757,8.354 4.136,12.531 0.304,0.922 -2.36,2.623 -2.934,1.803 -8.397,-11.999 -16.794,-23.997 -25.191,-35.996 -0.33,0.925 -2.226,2.168 -2.743,1.566 -0.103,-0.12 -0.205,-0.239 -0.308,-0.359 0.178,0.259 0.355,0.515 0.533,0.778 0.422,0.621 -0.985,1.951 -1.961,2.252 3.74,5.457 7.481,10.915 11.221,16.372 0.535,0.781 -2.263,2.534 -2.934,1.802 -2.576,-2.806 -5.152,-5.613 -7.727,-8.419 1.45,1.915 2.899,3.829 4.349,5.744 0.557,0.735 -2.235,2.524 -2.934,1.803 -1.511,-1.559 -3.021,-3.117 -4.532,-4.675 -0.485,0.186 -0.943,0.234 -1.193,0.004 -8.135,-7.484 -16.269,-14.969 -24.404,-22.453 4.472,7.058 8.963,14.103 13.473,21.129 0.113,0.177 0.081,0.408 -0.037,0.652 1.28,1.75 2.559,3.5 3.839,5.25 0.552,0.755 -2.24,2.519 -2.934,1.803 -9.095,-9.375 -18.19,-18.751 -27.285,-28.126 0.705,1.51 1.41,3.006 2.116,4.51 8.273,10.532 16.547,21.063 24.821,31.595 0.571,0.728 -2.211,2.486 -2.935,1.802 -12.254,-11.575 -24.509,-23.15 -36.764,-34.725 4.872,5.846 9.744,11.692 14.616,17.539 0.593,0.711 -2.187,2.439 -2.934,1.802 -0.781,-0.664 -1.561,-1.328 -2.341,-1.992 -0.679,0.582 -1.583,0.99 -1.947,0.615 -4.059,-4.173 -8.098,-8.369 -12.115,-12.586 -2.934,-2.498 -5.869,-4.996 -8.804,-7.495 4.474,4.856 8.948,9.712 13.423,14.568 0.597,0.649 -2.162,2.448 -2.934,1.803 -4.56,-3.807 -9.12,-7.615 -13.679,-11.422 9.789,10.802 19.578,21.605 29.367,32.408 0.583,0.643 -2.174,2.493 -2.934,1.803 -8.176,-7.428 -16.351,-14.856 -24.526,-22.284 2.71,3.327 5.421,6.653 8.131,9.98 0.567,0.696 -2.217,2.526 -2.934,1.803 L 0.289,232.407 c 1.094,2.23 2.189,4.461 3.283,6.691 0.454,0.926 -2.54,2.606 -2.934,1.803 -2.634,-5.368 -5.267,-10.736 -7.901,-16.104 -0.446,-0.909 2.25,-2.492 2.934,-1.803 1.264,1.274 2.527,2.547 3.791,3.82 -0.163,-0.2 -0.326,-0.399 -0.489,-0.599 -0.431,-0.53 0.99,-1.634 2.052,-1.895 -7.138,-9.151 -14.24,-18.36 -21.291,-27.581 -0.605,-0.791 1.968,-2.969 2.7,-2.264 5.578,5.371 11.157,10.741 16.735,16.062 -0.058,-0.192 -0.116,-0.385 -0.174,-0.577 -1.032,-1.12 -2.065,-2.24 -3.097,-3.361 -0.376,-0.408 0.591,-1.283 1.547,-1.705 -3.501,-5.163 -5.264,-7.782 -8.775,-13.022 -0.569,-0.847 2.018,-2.987 2.699,-2.231 0.243,0.269 0.486,0.538 0.729,0.808 0.774,-0.379 1.702,-0.56 2.046,-0.091 1.291,1.763 2.582,3.502 3.873,5.256 0.264,-0.641 1.74,-1.659 2.59,-1.579 -1.116,-3.19 -2.231,-6.394 -3.347,-9.612 -1.317,-2.019 -2.633,-4.044 -3.949,-6.074 -0.393,-0.608 0.759,-1.828 1.716,-2.237 0.751,-0.653 2.395,-1.038 2.832,-0.472 2.215,2.864 4.429,5.717 6.644,8.556 0.016,-0.028 0.05,-0.056 0.071,-0.084 -0.369,-0.54 -0.738,-1.08 -1.106,-1.621 -0.578,-0.848 1.993,-2.914 2.699,-2.169 0.354,0.374 0.708,0.747 1.061,1.119 -2.347,-3.216 -4.695,-6.452 -7.042,-9.704 -0.612,-0.846 1.938,-2.845 2.699,-2.172 1.808,1.6 3.616,3.197 5.424,4.788 -1.542,-2.626 -3.084,-5.265 -4.626,-7.914 -0.199,-0.342 0.257,-0.787 0.879,-1.121 -6.142,-11.004 -12.204,-22.061 -18.229,-33.124 -0.534,-0.981 1.925,-2.887 2.7,-2.213 5.487,4.773 10.735,9.874 15.733,15.185 -0.849,-1.983 -1.698,-3.971 -2.547,-5.963 -0.432,-1.014 2.209,-2.977 2.7,-2.114 2.219,3.907 6.657,11.654 6.657,11.654 0,0 -8.708,-15.697 -13.061,-23.657 -0.329,-0.602 0.568,-1.584 1.43,-2.053 -4.518,-6.381 -9.036,-12.797 -13.554,-19.192 -0.435,-0.616 0.821,-1.907 1.798,-2.268 -0.621,-1.394 -1.236,-2.791 -1.815,-4.208 -0.398,-0.975 2.035,-2.216 2.787,-1.924 3.549,1.378 6.945,3.028 10.188,4.903 -2.717,-3.883 -5.435,-7.767 -8.153,-11.651 -0.533,-0.761 2.317,-2.596 2.934,-1.803 5.709,7.347 11.418,14.694 17.128,22.041 0.299,0.266 0.589,0.542 0.884,0.814 0.093,-0.128 0.234,-0.258 0.416,-0.379 C 1.709,90.005 -9,70.54 -19.816,51.187 c -0.539,-0.966 2.131,-3.014 2.7,-2.14 8.169,12.551 24.414,37.789 24.415,37.789 0,0 -18.237,-29.897 -27.445,-44.743 -0.568,-0.915 2.053,-2.975 2.699,-2.125 C -6.115,54.876 4.716,70.308 15.328,85.892 14.833,84.443 14.339,82.993 13.844,81.543 3.125,65.338 -7.491,49.074 -18.204,32.904 c -0.588,-0.887 2.034,-2.929 2.7,-2.077 1.145,1.466 2.271,2.952 3.407,4.426 0.455,-0.805 2.34,-1.832 2.906,-1.262 3.099,3.122 6.199,6.243 9.298,9.365 L -12.461,21.047 c -0.488,-0.867 2.26,-2.502 2.934,-1.803 2.494,2.585 4.989,5.17 7.483,7.755 0.366,-0.082 0.691,-0.056 0.878,0.142 4.471,4.762 8.942,9.524 13.414,14.286 C 10.833,38.112 9.426,34.795 8.014,31.478 7.642,30.803 7.262,30.132 6.883,29.461 -3.747,14.899 -14.377,0.338 -25.007,-14.223 c -0.548,-0.75 2.252,-2.538 2.934,-1.802 8.338,8.996 15.907,18.616 22.688,28.745 0.302,-0.418 0.83,-0.801 1.334,-0.999 -4.374,-7.846 -8.748,-15.659 -13.122,-23.34 -0.215,-0.376 0.047,-0.864 0.483,-1.275 -7.005,-12.667 -14.09,-25.324 -21.462,-37.693 -0.528,-0.886 2.132,-2.959 2.699,-2.159" />
    </g>
  </g>
</svg>
